<svg width="21" height="20" viewBox="0 0 21 20" fill="none" xmlns="http://www.w3.org/2000/svg">
<path fill-rule="evenodd" clip-rule="evenodd" d="M3.26439 3.40662L3.32485 3.34344C4.93103 1.73711 5.977 1.31134 7.09302 1.9531C7.41404 2.13771 7.715 2.39611 8.12425 2.81176L9.37955 4.11344C10.0729 4.87002 10.2305 5.59573 10.0048 6.44562L9.97366 6.55814L9.93914 6.67001L9.77132 7.16237C9.41215 8.26652 9.5621 8.88948 10.84 10.1671C12.1689 11.4956 12.7893 11.6043 13.9786 11.1887L14.1905 11.1151L14.4469 11.0318L14.559 11.0007C15.4624 10.7597 16.2255 10.952 17.0348 11.7608L18.0462 12.7377L18.344 13.0306C18.6741 13.3672 18.8922 13.6339 19.0534 13.9158C19.6911 15.0315 19.2649 16.0768 17.6124 17.7232L17.4552 17.8825C17.2084 18.1203 16.9779 18.2906 16.6393 18.4514C16.0709 18.7213 15.3993 18.8231 14.619 18.7145C12.6961 18.4471 10.2573 16.9299 7.16703 13.8405C6.91547 13.589 6.67455 13.3423 6.444 13.1005L5.99669 12.6231C1.80515 8.06912 1.43537 5.27165 3.15311 3.51717L3.26439 3.40662ZM7.11247 3.56752C6.84098 3.29986 6.64376 3.1367 6.46989 3.03671C6.08529 2.81555 5.67004 2.90904 4.90154 3.57048L4.66007 3.7862C4.61795 3.82508 4.57487 3.86544 4.53078 3.90732L4.25388 4.17701L4.22894 4.20818L4.04122 4.39677C3.58759 4.86012 3.37272 5.42561 3.55788 6.39814C3.86172 7.99399 5.25248 10.1589 8.0508 12.9565C10.9665 15.8715 13.1881 17.2535 14.7911 17.4764C15.7256 17.6064 16.2023 17.3801 16.6884 16.8821L17.0591 16.508C17.233 16.3261 17.3815 16.1612 17.5069 16.0106L17.678 15.795C18.1152 15.2126 18.1551 14.8633 17.9682 14.5361C17.897 14.4117 17.7935 14.2752 17.6429 14.1084L17.4385 13.8926L17.3176 13.7716L16.0415 12.5394C15.6151 12.1462 15.3237 12.0904 14.8813 12.2084L14.7535 12.2452L14.225 12.4246C12.6915 12.9198 11.5853 12.6797 9.95624 11.0511C8.26904 9.36429 8.07117 8.23789 8.63648 6.61606L8.67274 6.51184L8.77303 6.20969L8.82232 6.01711C8.90974 5.59797 8.80994 5.30573 8.35937 4.85509C8.34082 4.83654 8.32008 4.81563 8.29752 4.79275L7.11247 3.56752Z" fill="#3BB77E"/>
</svg>
