<svg width="20" height="20" viewBox="0 0 20 20" fill="none" xmlns="http://www.w3.org/2000/svg">
<path d="M13.0159 3.72435C12.0635 2.91721 11.0826 2.0799 10.0897 1.09023L9.52382 0.52832L8.96826 1.09102C7.18096 2.88309 6.33651 5.63467 5.96984 7.28547C5.68919 6.85047 5.48093 6.37284 5.35318 5.87118L5.01746 4.57514L4.04127 5.49261C2.33096 7.09816 1.19048 8.69102 1.19048 11.2418C1.17451 13.0817 1.77375 14.8742 2.89303 16.3346C4.01231 17.7948 5.58744 18.8394 7.36826 19.3022C7.90482 19.4326 8.45247 19.5124 9.00398 19.5403C9.17641 19.5621 9.35001 19.5734 9.52382 19.5744C9.61505 19.5744 9.70401 19.5665 9.79286 19.5608C11.9549 19.4958 14.0065 18.5908 15.5121 17.0379C17.0177 15.4849 17.859 13.4064 17.8571 11.2434C17.8571 7.83547 15.6135 5.9307 13.0159 3.72435ZM9.68258 17.9736C9.60315 17.9736 9.52382 17.9815 9.43968 17.9807C8.72534 17.9588 8.04745 17.6602 7.54925 17.1478C7.05106 16.6354 6.77157 15.9493 6.76984 15.2346C6.76984 14.2284 7.30953 13.7267 8.53096 12.687C8.83889 12.4251 9.17381 12.1403 9.5262 11.8141C9.83496 12.0942 10.135 12.3482 10.4119 12.5839C11.6389 13.6251 12.2793 14.2165 12.2793 15.2323C12.278 15.9343 12.0084 16.6092 11.5256 17.1188C11.0428 17.6285 10.3834 17.9343 9.68258 17.9736ZM13.6667 16.568L13.6508 16.5791C13.7932 16.1451 13.8661 15.6914 13.8667 15.2346C13.8667 13.437 12.6873 12.4355 11.4397 11.376C10.9976 11.0013 10.5412 10.6141 10.0857 10.1585L9.52382 9.59741L8.9627 10.1585C8.44841 10.672 7.94524 11.1006 7.50159 11.4784C6.25715 12.537 5.18175 13.4522 5.18175 15.2346C5.18344 15.711 5.26389 16.1838 5.41984 16.6339C4.5937 15.9995 3.92538 15.1827 3.46706 14.2474C3.00875 13.3121 2.77284 12.2834 2.77779 11.2418C2.76473 9.84912 3.30377 8.50794 4.27699 7.51166C4.44462 7.85175 4.64336 8.17562 4.87064 8.47911C5.03664 8.70311 5.26456 8.87365 5.5263 8.96969C5.78804 9.06572 6.07217 9.08307 6.34365 9.01959C6.61983 8.95811 6.87246 8.81837 7.07133 8.61711C7.27021 8.41585 7.4069 8.16156 7.46508 7.88467C7.7974 6.06058 8.51613 4.32869 9.57305 2.8053C10.4103 3.59895 11.2397 4.30133 11.9881 4.93705C14.4738 7.04816 16.2738 8.57356 16.2738 11.2466C16.2757 12.2741 16.0416 13.2883 15.5894 14.2109C15.1372 15.1336 14.4791 15.94 13.6659 16.568H13.6667Z" fill="#253D4E"/>
</svg>
