<svg width="20" height="20" viewBox="0 0 20 20" fill="none" xmlns="http://www.w3.org/2000/svg">
<path fill-rule="evenodd" clip-rule="evenodd" d="M9.48841 1.00879C9.78932 0.774738 10.2107 0.774738 10.5116 1.00879L18.0116 6.84213C18.2146 7 18.3333 7.24276 18.3333 7.49992V16.6666C18.3333 17.3297 18.0699 17.9655 17.6011 18.4343C17.1322 18.9032 16.4964 19.1666 15.8333 19.1666H4.16666C3.50361 19.1666 2.86773 18.9032 2.39889 18.4343C1.93005 17.9655 1.66666 17.3297 1.66666 16.6666V7.49992C1.66666 7.24276 1.78538 7 1.98837 6.84213L9.48841 1.00879ZM3.33332 7.90749V16.6666C3.33332 16.8876 3.42112 17.0996 3.5774 17.2558C3.73368 17.4121 3.94564 17.4999 4.16666 17.4999H15.8333C16.0543 17.4999 16.2663 17.4121 16.4226 17.2558C16.5788 17.0996 16.6667 16.8876 16.6667 16.6666V7.90749L9.99999 2.7223L3.33332 7.90749Z" fill="#3BB77E"/>
<path fill-rule="evenodd" clip-rule="evenodd" d="M6.66666 10.0001C6.66666 9.53983 7.03976 9.16675 7.49999 9.16675H12.5C12.9602 9.16675 13.3333 9.53983 13.3333 10.0001V18.3334C13.3333 18.7937 12.9602 19.1667 12.5 19.1667C12.0397 19.1667 11.6667 18.7937 11.6667 18.3334V10.8334H8.33332V18.3334C8.33332 18.7937 7.96022 19.1667 7.49999 19.1667C7.03976 19.1667 6.66666 18.7937 6.66666 18.3334V10.0001Z" fill="#3BB77E"/>
</svg>
