<svg width="12" height="12" viewBox="0 0 12 12" fill="none" xmlns="http://www.w3.org/2000/svg">
<g clip-path="url(#clip0_1_306)">
<path fill-rule="evenodd" clip-rule="evenodd" d="M3.5 10.5C3.5 9.94772 3.94772 9.5 4.5 9.5C5.05228 9.5 5.5 9.94772 5.5 10.5C5.5 11.0523 5.05228 11.5 4.5 11.5C3.94772 11.5 3.5 11.0523 3.5 10.5Z" fill="white"/>
<path fill-rule="evenodd" clip-rule="evenodd" d="M9 10.5C9 9.94772 9.44772 9.5 10 9.5C10.5523 9.5 11 9.94772 11 10.5C11 11.0523 10.5523 11.5 10 11.5C9.44772 11.5 9 11.0523 9 10.5Z" fill="white"/>
<path fill-rule="evenodd" clip-rule="evenodd" d="M0 0.5C0 0.223858 0.223858 0 0.5 0H2.5C2.73831 0 2.94351 0.168193 2.99028 0.401872L3.41022 2.5H11.5C11.649 2.5 11.7903 2.56646 11.8852 2.68128C11.9802 2.79609 12.0191 2.94729 11.9911 3.09366L11.1904 7.29241C11.1219 7.63771 10.934 7.94788 10.6598 8.16863C10.3869 8.38829 10.0458 8.50548 9.69568 8.5H4.84432C4.49419 8.50548 4.1531 8.38829 3.88024 8.16863C3.60612 7.94797 3.41832 7.63796 3.34966 7.29283C3.34964 7.29269 3.34969 7.29297 3.34966 7.29283L2.51439 3.1196C2.51101 3.1058 2.50819 3.09177 2.50598 3.07754L2.09016 1H0.5C0.223858 1 0 0.776142 0 0.5ZM3.61036 3.5L4.33042 7.09759C4.35328 7.21269 4.4159 7.31608 4.50731 7.38967C4.59872 7.46325 4.71309 7.50234 4.83042 7.50009L4.84 7.5H9.7L9.70958 7.50009C9.82691 7.50234 9.94129 7.46325 10.0327 7.38967C10.1237 7.31642 10.1861 7.21365 10.2093 7.0992L10.8956 3.5H3.61036Z" fill="white"/>
</g>
<defs>
<clipPath id="clip0_1_306">
<rect width="12" height="12" fill="white"/>
</clipPath>
</defs>
</svg>
