<svg width="21" height="20" viewBox="0 0 21 20" fill="none" xmlns="http://www.w3.org/2000/svg">
<path fill-rule="evenodd" clip-rule="evenodd" d="M18.0519 4.33665C18.2592 4.49423 18.3809 4.73967 18.3809 5.00009V15.0001C18.3809 15.2529 18.2662 15.492 18.0691 15.6501C17.8719 15.8083 17.6136 15.8684 17.3668 15.8136L2.36684 12.4802C1.98556 12.3955 1.71428 12.0573 1.71428 11.6668V9.16676C1.71428 8.79242 1.96389 8.46401 2.32458 8.36382L17.3246 4.19716C17.5755 4.12746 17.8446 4.17906 18.0519 4.33665ZM3.38095 9.80016V10.9983L16.7143 13.9612V6.09646L3.38095 9.80016Z" fill="#253D4E"/>
<path fill-rule="evenodd" clip-rule="evenodd" d="M5.10255 11.8632C5.54621 11.9856 5.80666 12.4445 5.68427 12.8882C5.62582 13.1 5.60968 13.3213 5.63676 13.5394C5.66384 13.7575 5.73361 13.9682 5.8421 14.1593C5.95058 14.3505 6.09565 14.5184 6.26903 14.6534C6.4424 14.7885 6.64068 14.8881 6.85255 14.9466C7.06441 15.005 7.28572 15.0211 7.50382 14.9941C7.72193 14.967 7.93256 14.8972 8.1237 14.7887C8.31484 14.6802 8.48275 14.5352 8.61782 14.3618C8.75289 14.1884 8.8525 13.9901 8.91094 13.7783C9.03334 13.3346 9.49221 13.0742 9.93588 13.1966C10.3795 13.3189 10.64 13.7778 10.5176 14.2215C10.4009 14.6443 10.2022 15.0401 9.93256 15.3861C9.66297 15.7321 9.32787 16.0217 8.94638 16.2382C8.56489 16.4547 8.14449 16.594 7.70918 16.648C7.27388 16.7021 6.83219 16.6699 6.40933 16.5532C5.98648 16.4366 5.59074 16.2378 5.24471 15.9682C4.89868 15.6986 4.60914 15.3635 4.39262 14.982C4.1761 14.6005 4.03684 14.1801 3.98279 13.7448C3.92874 13.3095 3.96096 12.8678 4.07761 12.4449C4.2 12.0013 4.65888 11.7408 5.10255 11.8632Z" fill="#253D4E"/>
</svg>
