<svg width="18" height="18" viewBox="0 0 18 18" fill="none" xmlns="http://www.w3.org/2000/svg">
<path fill-rule="evenodd" clip-rule="evenodd" d="M16.2803 0.96967C16.5732 1.26256 16.5732 1.73744 16.2803 2.03033L15.3107 3L17.0303 4.71967C17.3232 5.01256 17.3232 5.48744 17.0303 5.78033L14.4053 8.40533C14.1124 8.69822 13.6376 8.69822 13.3447 8.40533L11.625 6.68566L9.56516 8.74549C9.79575 9.05735 9.98884 9.39636 10.1398 9.7556C10.3888 10.3484 10.5181 10.9845 10.5203 11.6275C10.5224 12.2704 10.3974 12.9074 10.1523 13.5018C9.90727 14.0962 9.54706 14.6363 9.09243 15.0909C8.6378 15.5456 8.09773 15.9058 7.50332 16.1508C6.90891 16.3959 6.27189 16.5209 5.62895 16.5188C4.98602 16.5166 4.34985 16.3873 3.75709 16.1383C3.16434 15.8892 2.62669 15.5254 2.17512 15.0678L2.1695 15.0621C1.28147 14.1426 0.790133 12.9112 0.80124 11.633C0.812348 10.3547 1.32505 9.13203 2.22891 8.22817C3.13278 7.3243 4.35549 6.81161 5.6337 6.8005C6.66331 6.79155 7.66258 7.10864 8.49288 7.69645L15.2197 0.96967C15.5126 0.676777 15.9874 0.676777 16.2803 0.96967ZM14.25 4.06066L12.6857 5.625L13.875 6.81434L15.4393 5.25L14.25 4.06066ZM3.24569 14.0171C2.63265 13.3809 2.29351 12.5296 2.30118 11.646C2.30887 10.7611 2.66382 9.91458 3.28957 9.28883C3.91532 8.66308 4.76182 8.30813 5.64673 8.30044C6.53164 8.29275 7.38418 8.63293 8.02071 9.24772C8.34138 9.55743 8.58549 9.9287 8.75685 10.3366C8.92925 10.747 9.01878 11.1874 9.02027 11.6325C9.02176 12.0776 8.93519 12.5186 8.76554 12.9301C8.59589 13.3416 8.34651 13.7155 8.03177 14.0303C7.71703 14.345 7.34313 14.5944 6.93162 14.764C6.5201 14.9337 6.07909 15.0203 5.63398 15.0188C5.18887 15.0173 4.74845 14.9278 4.33808 14.7554C3.92894 14.5835 3.55773 14.3326 3.24569 14.0171ZM3.24569 14.0171L3.24846 14.02L3.24286 14.0142L3.24569 14.0171Z" fill="#ADADAD"/>
</svg>
